# xmcd CD database file
#
# Track frame offsets:
#	150
#	1804
#	15327
#	29046
#	39295
#	55719
#	69242
#
# Disc length: 1098 seconds
#
# Revision: 0
# Processed by: cddbd v1.5.2PL0 Copyright (c) Steve Scherf et al.
# Submitted via: CDex 1.51
#
DISCID=45044807
DTITLE=pasodobles - torero
DYEAR=2010
DGENRE=Blues
TTITLE0=TOQUE DE CLARINES DE LA REAL M
TTITLE1=Banda de musica - La Gracia De Dios
TTITLE2=No me pises que llevo chanclas - Mi torero tiene gafas
TTITLE3=Banda de musica - España Cañi
TTITLE4=Chayanne - Torero
TTITLE5=Banda de musica - La Gracia De Dios
TTITLE6=el dos negromuy buena!!! (44100 hz - el dos negromuy buena!!! (44100 hz)
EXTD=YEAR: 2010
EXTT0=
EXTT1=
EXTT2=
EXTT3=
EXTT4=
EXTT5=
EXTT6=
PLAYORDER=
